<svg id="visual" viewBox="0 0 900 100" width="900" height="100" xmlns="http://www.w3.org/2000/svg" xmlns:xlink="http://www.w3.org/1999/xlink" version="1.1"><path d="M0 33L13.7 32.8C27.3 32.7 54.7 32.3 82 31.8C109.3 31.3 136.7 30.7 163.8 28.8C191 27 218 24 245.2 21.8C272.3 19.7 299.7 18.3 327 19.2C354.3 20 381.7 23 409 26.2C436.3 29.3 463.7 32.7 491 31.3C518.3 30 545.7 24 573 24.7C600.3 25.3 627.7 32.7 654.8 37.7C682 42.7 709 45.3 736.2 42.3C763.3 39.3 790.7 30.7 818 30.8C845.3 31 872.7 40 886.3 44.5L900 49L900 101L886.3 101C872.7 101 845.3 101 818 101C790.7 101 763.3 101 736.2 101C709 101 682 101 654.8 101C627.7 101 600.3 101 573 101C545.7 101 518.3 101 491 101C463.7 101 436.3 101 409 101C381.7 101 354.3 101 327 101C299.7 101 272.3 101 245.2 101C218 101 191 101 163.8 101C136.7 101 109.3 101 82 101C54.7 101 27.3 101 13.7 101L0 101Z" fill="#ffffff"></path><path d="M0 39L13.7 39.5C27.3 40 54.7 41 82 40.5C109.3 40 136.7 38 163.8 38C191 38 218 40 245.2 42.2C272.3 44.3 299.7 46.7 327 46.3C354.3 46 381.7 43 409 41.8C436.3 40.7 463.7 41.3 491 44C518.3 46.7 545.7 51.3 573 54.5C600.3 57.7 627.7 59.3 654.8 57.7C682 56 709 51 736.2 46.7C763.3 42.3 790.7 38.7 818 37.7C845.3 36.7 872.7 38.3 886.3 39.2L900 40L900 101L886.3 101C872.7 101 845.3 101 818 101C790.7 101 763.3 101 736.2 101C709 101 682 101 654.8 101C627.7 101 600.3 101 573 101C545.7 101 518.3 101 491 101C463.7 101 436.3 101 409 101C381.7 101 354.3 101 327 101C299.7 101 272.3 101 245.2 101C218 101 191 101 163.8 101C136.7 101 109.3 101 82 101C54.7 101 27.3 101 13.7 101L0 101Z" fill="#e2fbfe"></path><path d="M0 59L13.7 61.7C27.3 64.3 54.7 69.7 82 70.3C109.3 71 136.7 67 163.8 63.5C191 60 218 57 245.2 55.2C272.3 53.3 299.7 52.7 327 54C354.3 55.3 381.7 58.7 409 59.2C436.3 59.7 463.7 57.3 491 59.5C518.3 61.7 545.7 68.3 573 71.7C600.3 75 627.7 75 654.8 73.5C682 72 709 69 736.2 65.3C763.3 61.7 790.7 57.3 818 57.5C845.3 57.7 872.7 62.3 886.3 64.7L900 67L900 101L886.3 101C872.7 101 845.3 101 818 101C790.7 101 763.3 101 736.2 101C709 101 682 101 654.8 101C627.7 101 600.3 101 573 101C545.7 101 518.3 101 491 101C463.7 101 436.3 101 409 101C381.7 101 354.3 101 327 101C299.7 101 272.3 101 245.2 101C218 101 191 101 163.8 101C136.7 101 109.3 101 82 101C54.7 101 27.3 101 13.7 101L0 101Z" fill="#c2f7fd"></path><path d="M0 88L13.7 86.2C27.3 84.3 54.7 80.7 82 78.3C109.3 76 136.7 75 163.8 76C191 77 218 80 245.2 81.8C272.3 83.7 299.7 84.3 327 84.3C354.3 84.3 381.7 83.7 409 84C436.3 84.3 463.7 85.7 491 85.5C518.3 85.3 545.7 83.7 573 82.3C600.3 81 627.7 80 654.8 80.8C682 81.7 709 84.3 736.2 84.3C763.3 84.3 790.7 81.7 818 81.2C845.3 80.7 872.7 82.3 886.3 83.2L900 84L900 101L886.3 101C872.7 101 845.3 101 818 101C790.7 101 763.3 101 736.2 101C709 101 682 101 654.8 101C627.7 101 600.3 101 573 101C545.7 101 518.3 101 491 101C463.7 101 436.3 101 409 101C381.7 101 354.3 101 327 101C299.7 101 272.3 101 245.2 101C218 101 191 101 163.8 101C136.7 101 109.3 101 82 101C54.7 101 27.3 101 13.7 101L0 101Z" fill="#9ff3fc"></path></svg>