<svg id="visual" viewBox="0 0 900 600" width="900" height="600" xmlns="http://www.w3.org/2000/svg" xmlns:xlink="http://www.w3.org/1999/xlink" version="1.1"><path d="M0 538L25 541.8C50 545.7 100 553.3 150 556.5C200 559.7 250 558.3 300 555.8C350 553.3 400 549.7 450 547.5C500 545.3 550 544.7 600 541.8C650 539 700 534 750 536.2C800 538.3 850 547.7 875 552.3L900 557L900 601L875 601C850 601 800 601 750 601C700 601 650 601 600 601C550 601 500 601 450 601C400 601 350 601 300 601C250 601 200 601 150 601C100 601 50 601 25 601L0 601Z" fill="#9FF3FC" stroke-linecap="round" stroke-linejoin="miter"></path></svg>